{"title":"Adventure(1945)MPEG-4[DaScubaDude]","magnet":"magnet:?xt=urn:btih:0ec59529dd677f3b97814cd3d9f6fef19667cfde&dn=Adventure%281945%29MPEG-4%5BDaScubaDude%5D&tr=udp%3A%2F%2Ftracker.leechers-paradise.org%3A6969&tr=udp%3A%2F%2Fzer0day.ch%3A1337&tr=udp%3A%2F%2Fopen.demonii.com%3A1337&tr=udp%3A%2F%2Ftracker.coppersurfer.tk%3A6969&tr=udp%3A%2F%2Fexodus.desync.com%3A6969","uploader":"dascuba","categoryP":"video","categoryS":"movies","size":"1254445620","seeders":"15","leechers":"16","description":"Adventure (1945)\r\nNot Rated | 2h 15min | Drama, Romance, Comedy | 28 December 1945 (USA)\r\n\r\nGeneral\r\nComplete name                            : Adventure883316353127_Title2.mp4\r\nFormat                                   : MPEG-4\r\nFormat profile                           : Base Media\r\nCodec ID                                 : isom (isom/iso2/avc1/mp41)\r\nFile size                                : 1.17 GiB\r\nDuration                                 : 2 h 5 min\r\nOverall bit rate mode                    : Variable\r\nOverall bit rate                         : 1 331 kb/s\r\nMovie name                               : 883316353127\r\nWriting application                      : Lavf54.6.100\r\n\r\nVideo\r\nID                                       : 1\r\nFormat                                   : AVC\r\nFormat/Info                              : Advanced Video Codec\r\nFormat profile                           : <a class=\"__cf_email__\" href=\"/cdn-cgi/l/email-protection\" data-cfemail=\"da98bba9bfb6b3b4bf9a96e9\">[email&#xA0;protected]</a><script data-cfhash=\"f9e31\" type=\"text/javascript\">/* <![CDATA[ */!function(t,e,r,n,c,a,p){try{t=document.currentScript||function(){for(t=document.getElementsByTagName('script'),e=t.length;e--;)if(t[e].getAttribute('data-cfhash'))return t[e]}();if(t&&(c=t.previousSibling)){p=t.parentNode;if(a=c.getAttribute('data-cfemail')){for(e='',r='0x'+a.substr(0,2)|0,n=2;a.length-n;n+=2)e+='%'+('0'+('0x'+a.substr(n,2)^r).toString(16)).slice(-2);p.replaceChild(document.createTextNode(decodeURIComponent(e)),c)}p.removeChild(t)}}catch(u){}}()/* ]]> */</script>\r\nFormat settings, CABAC                   : No\r\nFormat settings, ReFrames                : 6 frames\r\nFormat settings, GOP                     : M=1, N=60\r\nCodec ID                                 : avc1\r\nCodec ID/Info                            : Advanced Video Coding\r\nDuration                                 : 2 h 5 min\r\nBit rate                                 : 1 195 kb/s\r\nWidth                                    : 720 pixels\r\nHeight                                   : 540 pixels\r\nDisplay aspect ratio                     : 4:3\r\nFrame rate mode                          : Constant\r\nFrame rate                               : 29.970 (30000/1001) FPS\r\nColor space                              : YUV\r\nChroma subsampling                       : 4:2:0\r\nBit depth                                : 8 bits\r\nScan type                                : Progressive\r\nBits/(Pixel*Frame)                       : 0.103\r\nStream size                              : 1.05 GiB (90%)\r\n\r\nAudio\r\nID                                       : 2\r\nFormat                                   : AAC\r\nFormat/Info                              : Advanced Audio Codec\r\nFormat profile                           : LC\r\nCodec ID                                 : 40\r\nDuration                                 : 2 h 5 min\r\nBit rate mode                            : Variable\r\nBit rate                                 : 129 kb/s\r\nMaximum bit rate                         : 145 kb/s\r\nChannel(s)                               : 2 channels\r\nChannel positions                        : Front: L R\r\nSampling rate                            : 44.1 kHz\r\nFrame rate                               : 43.066 FPS (1024 spf)\r\nCompression mode                         : Lossy\r\nStream size                              : 116 MiB (10%)\r\nDefault                                  : Yes\r\nAlternate group                          : 1","last_updated":"2017-04-23T18:01:29.908Z","parsed":{"xt":"urn:btih:0ec59529dd677f3b97814cd3d9f6fef19667cfde","dn":"Adventure(1945)MPEG-4[DaScubaDude]","tr":["udp://exodus.desync.com:6969","udp://open.demonii.com:1337","udp://tracker.coppersurfer.tk:6969","udp://tracker.leechers-paradise.org:6969","udp://zer0day.ch:1337"],"infoHash":"0ec59529dd677f3b97814cd3d9f6fef19667cfde","infoHashBuffer":{"type":"Buffer","data":[14,197,149,41,221,103,127,59,151,129,76,211,217,246,254,241,150,103,207,222]},"name":"Adventure(1945)MPEG-4[DaScubaDude]","announce":["udp://exodus.desync.com:6969","udp://open.demonii.com:1337","udp://tracker.coppersurfer.tk:6969","udp://tracker.leechers-paradise.org:6969","udp://zer0day.ch:1337"],"urlList":[]}}